<?xml version="1.0" encoding="UTF-8" standalone="no"?>
<!-- Created with Inkscape (http://www.inkscape.org/) -->

<svg
   xmlns:ns0="http://www.iki.fi/pav/software/textext/"
   xmlns:dc="http://purl.org/dc/elements/1.1/"
   xmlns:cc="http://creativecommons.org/ns#"
   xmlns:rdf="http://www.w3.org/1999/02/22-rdf-syntax-ns#"
   xmlns:svg="http://www.w3.org/2000/svg"
   xmlns="http://www.w3.org/2000/svg"
   xmlns:xlink="http://www.w3.org/1999/xlink"
   xmlns:sodipodi="http://sodipodi.sourceforge.net/DTD/sodipodi-0.dtd"
   xmlns:inkscape="http://www.inkscape.org/namespaces/inkscape"
   id="svg14253"
   version="1.1"
   inkscape:version="0.91 r13725"
   xml:space="preserve"
   width="137.58069"
   height="123.05592"
   viewBox="0 0 137.58069 123.05593"
   sodipodi:docname="estimate.svg"><sodipodi:namedview
     pagecolor="#ffffff"
     bordercolor="#666666"
     borderopacity="1"
     objecttolerance="10"
     gridtolerance="10"
     guidetolerance="10"
     inkscape:pageopacity="0"
     inkscape:pageshadow="2"
     inkscape:window-width="1855"
     inkscape:window-height="1056"
     id="namedview14255"
     showgrid="false"
     inkscape:zoom="3.5891829"
     inkscape:cx="83.883333"
     inkscape:cy="70.781188"
     inkscape:window-x="65"
     inkscape:window-y="24"
     inkscape:window-maximized="1"
     inkscape:current-layer="g14261"
     fit-margin-top="0"
     fit-margin-left="0"
     fit-margin-right="0"
     fit-margin-bottom="0" /><metadata
     id="metadata14259"><rdf:RDF><cc:Work
         rdf:about=""><dc:format>image/svg+xml</dc:format><dc:type
           rdf:resource="http://purl.org/dc/dcmitype/StillImage" /><dc:title></dc:title></cc:Work></rdf:RDF></metadata><defs
     id="defs14257"><clipPath
       id="clipPath14405"
       clipPathUnits="userSpaceOnUse"><path
         inkscape:connector-curvature="0"
         id="path14407"
         d="m 0,0 194.2777,0 0,161.39685 L 0,161.39685 0,0 Z" /></clipPath></defs><g
     transform="matrix(1.25,0,0,-1.25,-1.9844114,131.15377)"
     inkscape:label="estimate"
     inkscape:groupmode="layer"
     id="g14261"><g
       transform="translate(14.446,14.446)"
       id="g14263"><g
         id="g14265"><g
           id="g14267"><g
             id="g14269" /><g
             id="g14271" /><g
             transform="scale(0.5,0.5)"
             id="g14273"><g
               id="g14275" /></g><g
             id="g14277" /><g
             id="g14279" /><g
             id="g14281" /><g
             id="g14283" /><g
             transform="matrix(0.5,0,0,0.5,-4.483,-4.483)"
             id="g14285"><g
               transform="translate(8.966,8.966)"
               id="g14287"><g
                 id="g14289"><g
                   id="g14291"><g
                     id="g14293"><g
                       id="g14295"><g
                         id="g14297"><path
                           inkscape:connector-curvature="0"
                           id="path14299"
                           style="fill:none;stroke:#808080;stroke-width:0.19925;stroke-linecap:butt;stroke-linejoin:miter;stroke-miterlimit:10;stroke-dasharray:none;stroke-opacity:1"
                           d="m 0,-2.1259 0,4.2518 m 35.3233,-4.2518 0,4.2518 m 35.32332,-4.2518 0,4.2518 m 35.32332,-4.2518 0,4.2518 m 35.32332,-4.2518 0,4.2518 m 35.32332,-4.2518 0,4.2518" /></g></g><g
                       id="g14301"><g
                         id="g14303"><path
                           inkscape:connector-curvature="0"
                           id="path14305"
                           style="fill:none;stroke:#808080;stroke-width:0.19925;stroke-linecap:butt;stroke-linejoin:miter;stroke-miterlimit:10;stroke-dasharray:none;stroke-opacity:1"
                           d="m -2.126,0 4.252,0 m -4.252,45.97458 4.252,0 m -4.252,45.97458 4.252,0 m -4.252,45.97458 4.252,0" /></g></g><path
                       inkscape:connector-curvature="0"
                       id="path14307"
                       style="fill:none;stroke:#000000;stroke-width:0.3985;stroke-linecap:butt;stroke-linejoin:miter;stroke-miterlimit:10;stroke-dasharray:none;stroke-opacity:1"
                       d="M 0,0 192.28517,0" /><g
                       transform="translate(192.28517,0)"
                       id="g14309"><g
                         id="g14311"><path
                           inkscape:connector-curvature="0"
                           id="path14313"
                           style="fill:#000000;fill-opacity:1;fill-rule:nonzero;stroke:none"
                           d="M 1.99252,0 -1.19551,1.59401 0,0 -1.19551,-1.59401" /></g></g><path
                       inkscape:connector-curvature="0"
                       id="path14315"
                       style="fill:none;stroke:#000000;stroke-width:0.3985;stroke-linecap:butt;stroke-linejoin:miter;stroke-miterlimit:10;stroke-dasharray:none;stroke-opacity:1"
                       d="M 0,0 0,159.40433" /><g
                       transform="matrix(0,1,-1,0,0,159.40433)"
                       id="g14317"><g
                         id="g14319"><path
                           inkscape:connector-curvature="0"
                           id="path14321"
                           style="fill:#000000;fill-opacity:1;fill-rule:nonzero;stroke:none"
                           d="M 1.99252,0 -1.19551,1.59401 0,0 -1.19551,-1.59401" /></g></g><g
                       id="g14323"><g
                         transform="translate(0,-5.646)"
                         id="g14325"><g
                           id="g14327" /><g
                           transform="translate(0,5.646)"
                           id="g14329" /></g></g><g
                       id="g14331"><g
                         transform="translate(35.323,-5.646)"
                         id="g14333"><g
                           id="g14335" /><g
                           transform="translate(-35.323,5.646)"
                           id="g14337" /></g></g><g
                       id="g14339"><g
                         transform="translate(70.646,-5.646)"
                         id="g14341"><g
                           id="g14343" /><g
                           transform="translate(-70.646,5.646)"
                           id="g14345" /></g></g><g
                       id="g14347"><g
                         transform="translate(105.969,-5.646)"
                         id="g14349"><g
                           id="g14351" /><g
                           transform="translate(-105.969,5.646)"
                           id="g14353" /></g></g><g
                       id="g14355"><g
                         transform="translate(141.291,-5.646)"
                         id="g14357"><g
                           id="g14359" /><g
                           transform="translate(-141.291,5.646)"
                           id="g14361" /></g></g><g
                       id="g14363"><g
                         transform="translate(176.614,-5.646)"
                         id="g14365"><g
                           id="g14367" /><g
                           transform="translate(-176.614,5.646)"
                           id="g14369" /></g></g><g
                       id="g14371"><g
                         transform="translate(-5.646,0)"
                         id="g14373"><g
                           id="g14375" /><g
                           transform="translate(5.646,0)"
                           id="g14377" /></g></g><g
                       id="g14379"><g
                         transform="translate(-5.646,45.974)"
                         id="g14381"><g
                           id="g14383" /><g
                           transform="translate(5.646,-45.974)"
                           id="g14385" /></g></g><g
                       id="g14387"><g
                         transform="translate(-5.646,91.948)"
                         id="g14389"><g
                           id="g14391" /><g
                           transform="translate(5.646,-91.948)"
                           id="g14393" /></g></g><g
                       id="g14395"><g
                         transform="translate(-5.646,137.922)"
                         id="g14397"><g
                           id="g14399" /><g
                           transform="translate(5.646,-137.922)"
                           id="g14401" /></g></g><g
                       clip-path="url(#clipPath14405)"
                       id="g14403"><g
                         id="g14409"><path
                           inkscape:connector-curvature="0"
                           id="path14411"
                           style="fill:none;stroke:#0000ff;stroke-width:0.3985;stroke-linecap:butt;stroke-linejoin:miter;stroke-miterlimit:10;stroke-dasharray:none;stroke-opacity:1"
                           d="m 0,0.02458 c 0,0 2.60419,0.01727 3.60439,0.02994 1.00019,0.01266 2.60418,0.03613 3.60438,0.06134 1.0002,0.02521 2.60419,0.07236 3.60439,0.12036 1.00019,0.04799 2.60418,0.13822 3.60438,0.22562 1.00022,0.08742 2.6042,0.25224 3.6044,0.4044 1.0002,0.15218 2.60419,0.43947 3.60439,0.69241 1.0002,0.25295 2.60418,0.72931 3.60438,1.13075 1.0002,0.40145 2.60419,1.15499 3.60439,1.76257 1.0002,0.60757 2.6042,1.74053 3.6044,2.61645 1.0002,0.87593 2.60419,2.49547 3.60438,3.69659 1.0002,1.20113 2.60419,3.39632 3.60439,4.96029 1.0002,1.56396 2.60419,4.38423 3.60439,6.3117 1.00019,1.92748 2.6042,5.3392 3.6044,7.5802 1.00019,2.241 2.60418,6.1277 3.60438,8.57138 1.0002,2.44367 2.6042,6.56672 3.6044,9.04091 1.0002,2.4742 2.60419,6.5006 3.60439,8.79148 1.0002,2.29087 2.6042,5.83996 3.6044,7.7196 1.0002,1.87963 2.60418,4.56586 3.60438,5.82748 1.0002,1.26163 2.60419,2.77073 3.60439,3.26554 1.0002,0.49481 2.60419,0.63182 3.60438,0.30079 1.0002,-0.33102 2.60421,-1.5698 3.6044,-2.68667 1.0002,-1.11687 2.60419,-3.59143 3.60439,-5.36307 1.0002,-1.77162 2.60419,-5.17864 3.60439,-7.40559 1.00019,-2.22695 2.60418,-6.18998 3.60438,-8.64473 1.0002,-2.45475 2.60422,-6.58258 3.60442,-9.04753 1.00019,-2.46494 2.60418,-6.42501 3.60438,-8.71813 1.0002,-2.2931 2.60419,-5.8123 3.60439,-7.8091 1.0002,-1.99679 2.60418,-4.94424 3.60438,-6.58241 1.0002,-1.63817 2.60419,-3.9528 3.6044,-5.22441 1.0002,-1.27162 2.60419,-3.00366 3.60439,-3.94051 1.0002,-0.93685 2.60419,-2.15585 3.60438,-2.81173 1.0002,-0.65587 2.60419,-1.47754 3.60439,-1.91544 1.0002,-0.43788 2.60419,-0.96213 3.60438,-1.24064 1.00022,-0.27852 2.60421,-0.59766 3.60441,-0.76676 1.00019,-0.1691 2.60418,-0.35397 3.60438,-0.45199 1.0002,-0.09803 2.60419,-0.20026 3.60439,-0.25458 1.00019,-0.05432 2.60418,-0.10822 3.60438,-0.13699 1.00022,-0.02878 2.6042,-0.0559 3.6044,-0.07047 1.0002,-0.01459 2.60419,-0.02762 3.60439,-0.0347 1.0002,-0.00706 2.6042,-0.01302 3.6044,-0.01631 1.0002,-0.00328 2.60419,-0.00591 3.60438,-0.00736 1.0002,-0.00143 2.60421,-0.00253 3.6044,-0.00314 1.0002,-6.1e-4 2.60419,-0.00108 3.60439,-0.00132 1.0002,-2.5e-4 2.60419,-4.2e-4 3.60438,-5.1e-4 1.0002,-9e-5 2.60419,-1.7e-4 3.60439,-2e-4 1.0002,-3e-5 2.6042,-7e-5 3.6044,-7e-5 1.0002,0 2.60419,-2e-5 3.60439,-2e-5 1.00019,0 2.60418,0 3.60438,0 1.0002,0 3.60439,0 3.60439,0" /></g><g
                         id="g14413"><path
                           inkscape:connector-curvature="0"
                           id="path14415"
                           style="fill:none;stroke:#ff0000;stroke-width:0.3985;stroke-linecap:butt;stroke-linejoin:miter;stroke-miterlimit:10;stroke-dasharray:none;stroke-opacity:1"
                           d="m 0,0.01637 c 0,0 2.60419,0.0074 3.60439,0.01165 1.00019,0.00424 2.60418,0.01211 3.60438,0.01893 1.0002,0.00682 2.60419,0.01949 3.60439,0.03029 1.00019,0.01079 2.60418,0.03079 3.60438,0.04752 1.00022,0.01672 2.6042,0.04765 3.6044,0.07305 1.0002,0.02541 2.60419,0.07226 3.60439,0.11008 1.0002,0.03783 2.60418,0.10739 3.60438,0.16255 1.0002,0.05518 2.60419,0.1563 3.60439,0.23517 1.0002,0.07886 2.6042,0.2229 3.6044,0.33335 1.0002,0.11044 2.60419,0.31126 3.60438,0.46272 1.0002,0.15146 2.60419,0.42557 3.60439,0.62898 1.0002,0.2034 2.60419,0.56964 3.60439,0.83701 1.00019,0.26735 2.6042,0.7464 3.6044,1.09003 1.00019,0.34362 2.60418,0.95385 3.60438,1.3866 1.0002,0.43276 2.6042,1.20022 3.6044,1.73247 1.0002,0.53224 2.60419,1.46428 3.60439,2.10369 1.0002,0.63939 2.6042,1.75396 3.6044,2.50473 1.0002,0.75076 2.60418,2.04767 3.60438,2.90632 1.0002,0.85868 2.60419,2.32538 3.60439,3.28244 1.0002,0.95708 2.60419,2.57695 3.60438,3.61555 1.0002,1.03858 2.60421,2.77631 3.6044,3.86987 1.0002,1.09355 2.60419,2.89848 3.60439,4.01171 1.0002,1.11322 2.60419,2.91884 3.60439,4.01171 1.00019,1.09288 2.60418,2.83665 3.60438,3.86501 1.0002,1.02833 2.60422,2.62953 3.60442,3.54655 1.00019,0.91702 2.60418,2.30182 3.60438,3.06283 1.0002,0.76101 2.60419,1.85523 3.60439,2.42209 1.0002,0.56685 2.60418,1.32076 3.60438,1.66347 1.0002,0.34271 2.60419,0.7075 3.6044,0.80658 1.0002,0.09906 2.60419,0.05611 3.60439,-0.09245 1.0002,-0.14855 2.60419,-0.58917 3.60438,-0.97823 1.0002,-0.38905 2.60419,-1.21699 3.60439,-1.82587 1.0002,-0.60887 2.60419,-1.76704 3.60438,-2.56247 1.00022,-0.79542 2.60421,-2.22822 3.60441,-3.17044 1.00019,-0.94221 2.60418,-2.57568 3.60438,-3.62043 1.0002,-1.04476 2.60419,-2.8084 3.60439,-3.90949 1.00019,-1.10107 2.60418,-2.91383 3.60438,-4.0264 1.00022,-1.11254 2.6042,-2.90747 3.6044,-3.99214 1.0002,-1.08465 2.60419,-2.80179 3.60439,-3.82536 1.0002,-1.02358 2.6042,-2.61313 3.6044,-3.55194 1.0002,-0.93881 2.60419,-2.37609 3.60438,-3.21448 1.0002,-0.83838 2.60421,-2.09975 3.6044,-2.82805 1.0002,-0.72832 2.60419,-1.80342 3.60439,-2.42111 1.0002,-0.61769 2.60419,-1.519 3.60438,-2.03082 1.0002,-0.51181 2.60419,-1.24436 3.60439,-1.65808 1.0002,-0.41372 2.6042,-0.9964 3.6044,-1.3238 1.0002,-0.32737 2.60419,-0.78221 3.60439,-1.03581 1.00019,-0.2536 2.60418,-0.5999 3.60438,-0.79201 1.0002,-0.1921 3.60439,-0.59262 3.60439,-0.59262" /></g><g
                         id="g14417"><path
                           inkscape:connector-curvature="0"
                           id="path14419"
                           style="fill:none;stroke:#734c26;stroke-width:0.3985;stroke-linecap:butt;stroke-linejoin:miter;stroke-miterlimit:10;stroke-dasharray:none;stroke-opacity:1"
                           d="m 0,0 c 0,0 2.60419,0 3.60439,0 1.00019,0 2.60418,0 3.60438,0 1.0002,0 2.60419,0 3.60439,0 1.00019,0 2.60418,0 3.60438,0 1.00022,0 2.6042,0 3.6044,0 1.0002,0 2.60419,0 3.60439,0 1.0002,0 2.60418,0 3.60438,0 1.0002,0 2.60419,0 3.60439,0 1.0002,0 2.6042,0 3.6044,0 1.0002,0 2.60419,0 3.60438,0 1.0002,0 2.60419,0 3.60439,0 1.0002,0 2.60419,0 3.60439,0 1.00019,0 2.6042,0 3.6044,0 1.00019,0 2.60418,0 3.60438,1e-4 1.0002,1.4e-4 2.6042,-4e-5 3.6044,8.8e-4 1.0002,9.1e-4 2.60419,5.6e-4 3.60439,0.00575 1.0002,0.00519 2.6042,0.00688 3.6044,0.03169 1.0002,0.02481 2.60418,0.04728 3.60438,0.14718 1.0002,0.0999 2.60419,0.2346 3.60439,0.57296 1.0002,0.33836 2.60419,0.90457 3.60438,1.86578 1.0002,0.9612 2.60421,2.78308 3.6044,5.06194 1.0002,2.27885 2.60419,6.88017 3.60439,11.3625 1.0002,4.48233 2.60419,13.72429 3.60439,20.94313 1.00019,7.21884 2.60418,21.80103 3.60438,31.08527 1.0002,9.28424 2.60422,26.80362 3.60442,35.8291 1.00019,9.02547 2.60418,23.69574 3.60438,29.22029 1.0002,5.52457 2.60419,10.90648 3.60439,10.59703 1.0002,-0.30945 2.60418,-6.81987 3.60438,-12.82734 1.0002,-6.0075 2.60419,-21.27604 3.6044,-30.47049 1.0002,-9.19446 2.60419,-26.63919 3.60439,-35.79682 1.0002,-9.15761 2.60419,-23.25476 3.60438,-30.20486 1.0002,-6.95011 2.60419,-15.65958 3.60439,-19.88666 1.0002,-4.22707 2.60419,-8.4702 3.60438,-10.57927 1.00022,-2.10906 2.60421,-3.74821 3.60441,-4.62146 1.00019,-0.87324 2.60418,-1.37036 3.60438,-1.6724 1.0002,-0.30203 2.60419,-0.4168 3.60439,-0.50445 1.00019,-0.08763 2.60418,-0.10589 3.60438,-0.12727 1.00022,-0.0214 2.6042,-0.02258 3.6044,-0.02698 C 137.96701,0.0012 139.571,0.00156 140.5712,8e-4 141.5714,3e-5 143.1754,1.8e-4 144.1756,8e-5 145.1758,0 146.77979,0 147.77998,0 c 1.0002,0 2.60421,0 3.6044,0 1.0002,0 2.60419,0 3.60439,0 1.0002,0 2.60419,0 3.60438,0 1.0002,0 2.60419,0 3.60439,0 1.0002,0 2.6042,0 3.6044,0 1.0002,0 2.60419,0 3.60439,0 1.00019,0 2.60418,0 3.60438,0 1.0002,0 3.60439,0 3.60439,0" /></g><g
                         id="g14421"><g
                           transform="translate(70.646,73.364)"
                           id="g14423"><g
                             id="g14425" /><g
                             transform="translate(-70.646,-73.364)"
                             id="g14427" /></g></g><g
                         id="g14429"><g
                           transform="translate(9.962,92.511)"
                           id="g14431"><g
                             id="g14433"><g
                               transform="translate(-28.891,-111.44)"
                               id="g14435"><text
                                 id="text14437"
                                 style="font-variant:normal;font-weight:normal;font-size:9.96259975px;font-family:CMMI10;-inkscape-font-specification:CMMI10;writing-mode:lr-tb;fill:#000000;fill-opacity:1;fill-rule:nonzero;stroke:none"
                                 transform="matrix(1,0,0,-1,28.891,111.44)"><tspan
                                   id="tspan14439"
                                   sodipodi:role="line"
                                   y="0"
                                   x="0 4.8288722 9.1048203 13.775287 18.413874 23.187952 28.375477 33.641708 37.239204 40.671318 45.500191">observation</tspan></text>
<g
                                 transform="translate(28.891,111.44)"
                                 id="g14441" /></g></g><g
                             transform="translate(-9.962,-92.511)"
                             id="g14443" /></g></g><g
                         id="g14445"><g
                           id="g14447"><path
                             inkscape:connector-curvature="0"
                             id="path14449"
                             style="fill:none;stroke:#808080;stroke-width:0.19925;stroke-linecap:butt;stroke-linejoin:miter;stroke-miterlimit:10;stroke-dasharray:none;stroke-opacity:1"
                             d="M 67.1268,75.64111 46.48817,88.99245" /></g></g><g
                         id="g14451"><g
                           transform="translate(105.969,45.779)"
                           id="g14453"><g
                             id="g14455" /><g
                             transform="translate(-105.969,-45.779)"
                             id="g14457" /></g></g><g
                         id="g14459"><g
                           transform="translate(125.877,43.289)"
                           id="g14461"><g
                             id="g14463"><g
                               transform="translate(-144.806,-62.218)"
                               id="g14465"><text
                                 id="text14467"
                                 style="font-variant:normal;font-weight:normal;font-size:9.96259975px;font-family:CMMI10;-inkscape-font-specification:CMMI10;writing-mode:lr-tb;fill:#000000;fill-opacity:1;fill-rule:nonzero;stroke:none"
                                 transform="matrix(1,0,0,-1,144.806,62.218)"><tspan
                                   id="tspan14469"
                                   sodipodi:role="line"
                                   y="0"
                                   x="0 5.0121841 9.7862616 14.424849 19.610382 23.042498 27.354311 30.951805 34.383923 39.212795">prediction</tspan></text>
<g
                                 transform="translate(144.806,62.218)"
                                 id="g14471" /></g></g><g
                             transform="translate(-125.877,-43.289)"
                             id="g14473" /></g></g><g
                         id="g14475"><g
                           id="g14477"><path
                             inkscape:connector-curvature="0"
                             id="path14479"
                             style="fill:none;stroke:#808080;stroke-width:0.19925;stroke-linecap:butt;stroke-linejoin:miter;stroke-miterlimit:10;stroke-dasharray:none;stroke-opacity:1"
                             d="m 109.48976,45.78004 12.86854,0" /></g></g><g
                         id="g14481"><g
                           transform="translate(97.138,137.727)"
                           id="g14483"><g
                             id="g14485" /><g
                             transform="translate(-97.138,-137.727)"
                             id="g14487" /></g></g><g
                         id="g14489"><g
                           transform="translate(36.86,124.779)"
                           id="g14491"><g
                             id="g14493"><g
                               transform="translate(-55.789,-143.708)"
                               id="g14495"><text
                                 id="text14497"
                                 style="font-variant:normal;font-weight:normal;font-size:9.96259975px;font-family:CMMI10;-inkscape-font-specification:CMMI10;writing-mode:lr-tb;fill:#000000;fill-opacity:1;fill-rule:nonzero;stroke:none"
                                 transform="matrix(1,0,0,-1,55.789,143.708)"><tspan
                                   id="tspan14499"
                                   sodipodi:role="line"
                                   y="0"
                                   x="0 5.0121841 9.8410559 14.511523 18.109018 22.747604 27.521683 30.953798 35.782669">posterior</tspan></text>
<g
                                 transform="translate(55.789,143.708)"
                                 id="g14501" /></g></g><g
                             transform="translate(-36.86,-124.779)"
                             id="g14503" /></g></g><g
                         id="g14505"><g
                           id="g14507"><path
                             inkscape:connector-curvature="0"
                             id="path14509"
                             style="fill:none;stroke:#808080;stroke-width:0.19925;stroke-linecap:butt;stroke-linejoin:miter;stroke-miterlimit:10;stroke-dasharray:none;stroke-opacity:1"
                             d="M 93.6193,136.7938 80.93279,133.42131" /></g></g></g></g></g></g><g
                 transform="translate(-8.966,-8.966)"
                 id="g14511" /></g><g
               transform="translate(4.483,4.483)"
               id="g14513" /></g><g
             id="g14515" /><g
             id="g14517" /></g></g></g><g
       transform="matrix(1.0990981,0.04453504,0.04453504,-1.0990981,-249.72477,234.18705)"
       ns0:text="$p(x)$"
       ns0:preamble=""
       id="g16229"><defs
         id="defs16231"><g
           id="g16233"><symbol
             style="overflow:visible"
             overflow="visible"
             id="textext-b1ad9ddc-0"><path
               inkscape:connector-curvature="0"
               style="stroke:none"
               d=""
               id="path16236" /></symbol><symbol
             style="overflow:visible"
             overflow="visible"
             id="textext-b1ad9ddc-1"><path
               inkscape:connector-curvature="0"
               style="stroke:none"
               d="M 0.453125,1.21875 C 0.375,1.5625 0.34375,1.625 -0.09375,1.625 c -0.109375,0 -0.21875,0 -0.21875,0.1875 0,0.078125 0.046875,0.125 0.125,0.125 0.265625,0 0.5625,-0.03125 0.828125,-0.03125 0.34375,0 0.671875,0.03125 1,0.03125 0.046875,0 0.171875,0 0.171875,-0.203125 C 1.8125,1.625 1.71875,1.625 1.578125,1.625 c -0.5,0 -0.5,-0.0625 -0.5,-0.15625 0,-0.125 0.421875,-1.75 0.484375,-2 0.125,0.296875 0.40625,0.640625 0.921875,0.640625 1.15625,0 2.40625,-1.453125 2.40625,-2.921875 0,-0.9375 -0.578125,-1.59375 -1.328125,-1.59375 -0.5,0 -0.984375,0.359375 -1.3125,0.75 -0.09375,-0.546875 -0.53125,-0.75 -0.890625,-0.75 -0.46875,0 -0.65625,0.390625 -0.734375,0.5625 C 0.4375,-3.5 0.3125,-2.90625 0.3125,-2.875 c 0,0.109375 0.09375,0.109375 0.109375,0.109375 0.109375,0 0.109375,-0.015625 0.171875,-0.234375 0.171875,-0.703125 0.375,-1.1875 0.734375,-1.1875 0.171875,0 0.3125,0.078125 0.3125,0.453125 0,0.234375 -0.03125,0.34375 -0.078125,0.515625 z m 1.75,-4.328125 C 2.265625,-3.375 2.546875,-3.65625 2.71875,-3.8125 c 0.359375,-0.296875 0.640625,-0.375 0.8125,-0.375 0.390625,0 0.640625,0.34375 0.640625,0.9375 0,0.59375 -0.328125,1.734375 -0.515625,2.109375 -0.34375,0.703125 -0.8125,1.03125 -1.1875,1.03125 C 1.8125,-0.109375 1.6875,-0.9375 1.6875,-1 c 0,-0.015625 0,-0.03125 0.03125,-0.15625 z m 0,0"
               id="path16239" /></symbol><symbol
             style="overflow:visible"
             overflow="visible"
             id="textext-b1ad9ddc-2"><path
               inkscape:connector-curvature="0"
               style="stroke:none"
               d="M 3.328125,-3.015625 C 3.390625,-3.265625 3.625,-4.1875 4.3125,-4.1875 c 0.046875,0 0.296875,0 0.5,0.125 C 4.53125,-4 4.34375,-3.765625 4.34375,-3.515625 c 0,0.15625 0.109375,0.34375 0.375,0.34375 0.21875,0 0.53125,-0.171875 0.53125,-0.578125 0,-0.515625 -0.578125,-0.65625 -0.921875,-0.65625 -0.578125,0 -0.921875,0.53125 -1.046875,0.75 -0.25,-0.65625 -0.78125,-0.75 -1.078125,-0.75 -1.03125,0 -1.609375,1.28125 -1.609375,1.53125 0,0.109375 0.109375,0.109375 0.125,0.109375 0.078125,0 0.109375,-0.03125 0.125,-0.109375 0.34375,-1.0625 1,-1.3125 1.34375,-1.3125 0.1875,0 0.53125,0.09375 0.53125,0.671875 0,0.3125 -0.171875,0.96875 -0.53125,2.375 -0.15625,0.609375 -0.515625,1.03125 -0.953125,1.03125 -0.0625,0 -0.28125,0 -0.5,-0.125 0.25,-0.0625 0.46875,-0.265625 0.46875,-0.546875 0,-0.265625 -0.21875,-0.34375 -0.359375,-0.34375 -0.3125,0 -0.546875,0.25 -0.546875,0.578125 0,0.453125 0.484375,0.65625 0.921875,0.65625 0.671875,0 1.03125,-0.703125 1.046875,-0.75 0.125,0.359375 0.484375,0.75 1.078125,0.75 1.03125,0 1.59375,-1.28125 1.59375,-1.53125 0,-0.109375 -0.078125,-0.109375 -0.109375,-0.109375 -0.09375,0 -0.109375,0.046875 -0.140625,0.109375 -0.328125,1.078125 -1,1.3125 -1.3125,1.3125 -0.390625,0 -0.546875,-0.3125 -0.546875,-0.65625 0,-0.21875 0.046875,-0.4375 0.15625,-0.875 z m 0,0"
               id="path16242" /></symbol><symbol
             style="overflow:visible"
             overflow="visible"
             id="textext-b1ad9ddc-3"><path
               inkscape:connector-curvature="0"
               style="stroke:none"
               d=""
               id="path16245" /></symbol><symbol
             style="overflow:visible"
             overflow="visible"
             id="textext-b1ad9ddc-4"><path
               inkscape:connector-curvature="0"
               style="stroke:none"
               d="m 3.296875,2.390625 c 0,-0.03125 0,-0.046875 -0.171875,-0.21875 C 1.890625,0.921875 1.5625,-0.96875 1.5625,-2.5 c 0,-1.734375 0.375,-3.46875 1.609375,-4.703125 0.125,-0.125 0.125,-0.140625 0.125,-0.171875 0,-0.078125 -0.03125,-0.109375 -0.09375,-0.109375 -0.109375,0 -1,0.6875 -1.59375,1.953125 -0.5,1.09375 -0.625,2.203125 -0.625,3.03125 0,0.78125 0.109375,1.984375 0.65625,3.125 C 2.25,1.84375 3.09375,2.5 3.203125,2.5 c 0.0625,0 0.09375,-0.03125 0.09375,-0.109375 z m 0,0"
               id="path16248" /></symbol><symbol
             style="overflow:visible"
             overflow="visible"
             id="textext-b1ad9ddc-5"><path
               inkscape:connector-curvature="0"
               style="stroke:none"
               d="m 2.875,-2.5 c 0,-0.765625 -0.109375,-1.96875 -0.65625,-3.109375 -0.59375,-1.21875 -1.453125,-1.875 -1.546875,-1.875 -0.0625,0 -0.109375,0.046875 -0.109375,0.109375 0,0.03125 0,0.046875 0.1875,0.234375 0.984375,0.984375 1.546875,2.5625 1.546875,4.640625 0,1.71875 -0.359375,3.46875 -1.59375,4.71875 C 0.5625,2.34375 0.5625,2.359375 0.5625,2.390625 0.5625,2.453125 0.609375,2.5 0.671875,2.5 0.765625,2.5 1.671875,1.8125 2.25,0.546875 2.765625,-0.546875 2.875,-1.65625 2.875,-2.5 Z m 0,0"
               id="path16251" /></symbol></g></defs><g
         id="textext-b1ad9ddc-6"><g
           style="fill:#000000;fill-opacity:1"
           id="g16254"><use
             height="100%"
             width="100%"
             xlink:href="#textext-b1ad9ddc-1"
             x="223.43201"
             y="134.765"
             id="use16256" /></g><g
           style="fill:#000000;fill-opacity:1"
           id="g16258"><use
             height="100%"
             width="100%"
             xlink:href="#textext-b1ad9ddc-4"
             x="228.44501"
             y="134.765"
             id="use16260" /></g><g
           style="fill:#000000;fill-opacity:1"
           id="g16262"><use
             height="100%"
             width="100%"
             xlink:href="#textext-b1ad9ddc-2"
             x="232.319"
             y="134.765"
             id="use16264" /></g><g
           style="fill:#000000;fill-opacity:1"
           id="g16266"><use
             height="100%"
             width="100%"
             xlink:href="#textext-b1ad9ddc-5"
             x="238.013"
             y="134.765"
             id="use16268" /></g></g></g><g
       id="g16666"
       transform="matrix(1.0990981,0.04453504,0.04453504,-1.0990981,-145.52734,144.7149)"
       ns0:preamble=""
       ns0:text="$x$"><defs
         id="defs16668"><g
           id="g16670"><symbol
             id="textext-856d2dce-0"
             overflow="visible"
             style="overflow:visible"><path
               id="path16673"
               d=""
               style="stroke:none"
               inkscape:connector-curvature="0" /></symbol><symbol
             id="textext-856d2dce-1"
             overflow="visible"
             style="overflow:visible"><path
               id="path16676"
               d="M 3.328125,-3.015625 C 3.390625,-3.265625 3.625,-4.1875 4.3125,-4.1875 c 0.046875,0 0.296875,0 0.5,0.125 C 4.53125,-4 4.34375,-3.765625 4.34375,-3.515625 c 0,0.15625 0.109375,0.34375 0.375,0.34375 0.21875,0 0.53125,-0.171875 0.53125,-0.578125 0,-0.515625 -0.578125,-0.65625 -0.921875,-0.65625 -0.578125,0 -0.921875,0.53125 -1.046875,0.75 -0.25,-0.65625 -0.78125,-0.75 -1.078125,-0.75 -1.03125,0 -1.609375,1.28125 -1.609375,1.53125 0,0.109375 0.109375,0.109375 0.125,0.109375 0.078125,0 0.109375,-0.03125 0.125,-0.109375 0.34375,-1.0625 1,-1.3125 1.34375,-1.3125 0.1875,0 0.53125,0.09375 0.53125,0.671875 0,0.3125 -0.171875,0.96875 -0.53125,2.375 -0.15625,0.609375 -0.515625,1.03125 -0.953125,1.03125 -0.0625,0 -0.28125,0 -0.5,-0.125 0.25,-0.0625 0.46875,-0.265625 0.46875,-0.546875 0,-0.265625 -0.21875,-0.34375 -0.359375,-0.34375 -0.3125,0 -0.546875,0.25 -0.546875,0.578125 0,0.453125 0.484375,0.65625 0.921875,0.65625 0.671875,0 1.03125,-0.703125 1.046875,-0.75 0.125,0.359375 0.484375,0.75 1.078125,0.75 1.03125,0 1.59375,-1.28125 1.59375,-1.53125 0,-0.109375 -0.078125,-0.109375 -0.109375,-0.109375 -0.09375,0 -0.109375,0.046875 -0.140625,0.109375 -0.328125,1.078125 -1,1.3125 -1.3125,1.3125 -0.390625,0 -0.546875,-0.3125 -0.546875,-0.65625 0,-0.21875 0.046875,-0.4375 0.15625,-0.875 z m 0,0"
               style="stroke:none"
               inkscape:connector-curvature="0" /></symbol></g></defs><g
         id="textext-856d2dce-2"><g
           id="g16679"
           style="fill:#000000;fill-opacity:1"><use
             id="use16681"
             y="134.765"
             x="223.43201"
             xlink:href="#textext-856d2dce-1"
             width="100%"
             height="100%" /></g></g></g></g></svg>